<svg width="36" height="36" viewBox="0 0 36 36" fill="none" xmlns="http://www.w3.org/2000/svg">
<path fill-rule="evenodd" clip-rule="evenodd" d="M14.9916 18.0018L7.32141 22.488L1.24148 19.6971L-0.0065918 22.4426L4.14261 24.3473L1.86032 25.6821L3.34575 28.2886L5.62766 26.9539L5.18131 31.5457L8.15239 31.8235L8.80647 25.0947L16.4803 20.6063V29.6292L11.0504 33.5702L12.8126 35.9981L16.4803 33.3361V36H19.4803V33.336L23.1482 35.9981L24.9103 33.5702L19.4803 29.6291V20.6272L27.1712 25.1255L27.8254 31.855L30.7964 31.5772L30.35 26.9847L32.6324 28.3197L34.1179 25.7133L31.8358 24.3785L35.9843 22.4742L34.7363 19.7287L28.657 22.5193L20.9333 18.0018L28.6332 13.4983L34.7526 16.3073L36.0007 13.5618L31.812 11.639L34.1209 10.2886L32.6354 7.68213L30.3707 9.00675L30.8128 4.45871L27.8417 4.18093L27.1919 10.866L19.4803 15.3764V6.40132L24.9452 2.43491L23.183 0.00698921L19.4803 2.69444V0H16.4803V2.64368L12.8474 0.00698921L11.0853 2.43491L16.4803 6.35057V15.3973L8.83004 10.9227L8.17167 4.14974L5.20059 4.42752L5.65123 9.06347L3.34275 7.71326L1.85731 10.3197L4.12198 11.6443L0.0126858 13.5306L1.26076 16.2761L7.30078 13.5035L14.9916 18.0018Z" fill="white"/>
</svg>
